<svg width="64" height="64" viewBox="0 0 64 64" fill="none" xmlns="http://www.w3.org/2000/svg">
<g clip-path="url(#clip0_902_4426)">
<path d="M32 64C49.6731 64 64 49.6731 64 32C64 14.3269 49.6731 0 32 0C14.3269 0 0 14.3269 0 32C0 49.6731 14.3269 64 32 64Z" fill="#020F16"/>
<path d="M27.4434 42.2375L31.9997 48.2001L36.5559 42.2375C35.1497 41.6188 33.6309 41.2812 31.9997 41.2812C30.3684 41.2812 28.8497 41.6188 27.4434 42.2375Z" fill="white"/>
<path d="M36.5562 42.2373L32 46.7935L27.4438 42.2373C24.322 43.6154 21.9032 46.3435 21.0312 49.7185H42.9688C42.0969 46.3435 39.6781 43.6154 36.5562 42.2373Z" fill="#2DA833"/>
<path d="M32 39.5938C35.1066 39.5938 37.625 37.0753 37.625 33.9688C37.625 30.8621 35.1066 28.3438 32 28.3438C28.8934 28.3438 26.375 30.8621 26.375 33.9688C26.375 37.0753 28.8934 39.5938 32 39.5938Z" fill="#2DA833"/>
<path d="M14.2812 37.1185H22.4375V34.9248L19.0625 31.5498C16.7281 32.5904 14.9564 34.6435 14.2812 37.1185Z" fill="white"/>
<path d="M22.4375 29.6377C24.7675 29.6377 26.6562 27.7489 26.6562 25.419C26.6562 23.089 24.7675 21.2002 22.4375 21.2002C20.1075 21.2002 18.2188 23.089 18.2188 25.419C18.2188 27.7489 20.1075 29.6377 22.4375 29.6377Z" fill="white"/>
<path d="M49.7188 37.1185C49.0437 34.6154 47.2719 32.5904 44.9375 31.5498L41.5625 34.9248V37.1185H49.7188Z" fill="white"/>
<path d="M41.5625 29.6377C43.8925 29.6377 45.7812 27.7489 45.7812 25.419C45.7812 23.089 43.8925 21.2002 41.5625 21.2002C39.2325 21.2002 37.3438 23.089 37.3438 25.419C37.3438 27.7489 39.2325 29.6377 41.5625 29.6377Z" fill="white"/>
</g>
<defs>
<clipPath id="clip0_902_4426">
<rect width="64" height="64" fill="white"/>
</clipPath>
</defs>
</svg>
