<svg width="64" height="64" viewBox="0 0 64 64" fill="none" xmlns="http://www.w3.org/2000/svg">
<g clip-path="url(#clip0_902_4439)">
<path d="M32 64C49.6731 64 64 49.6731 64 32C64 14.3269 49.6731 0 32 0C14.3269 0 0 14.3269 0 32C0 49.6731 14.3269 64 32 64Z" fill="#062638"/>
<path d="M26.9175 39.7337L24.9287 36.8611L27.3594 32.6626L31.1159 36.4191L26.9175 39.7337Z" fill="#15803D"/>
<path d="M24.9284 36.8613L22.7188 34.6516L24.9284 32.4419L26.4753 33.1048L27.1381 34.6516L24.9284 36.8613Z" fill="#16A34A"/>
<path d="M29.3476 36.8613L27.1379 39.071L24.9282 36.8613L20.5088 41.2807L22.7185 43.4904L24.9282 41.2807L27.1379 43.4904L31.5573 39.071L30.8944 37.5242L29.3476 36.8613Z" fill="#16A34A"/>
<path d="M20.5092 41.2805L18.2995 39.0708L16.0898 41.2805L18.2995 43.4902L20.5092 41.2805Z" fill="#16A34A"/>
<path d="M29.3481 45.6999L27.1384 43.4902L24.9287 45.6999L27.1384 47.9096L29.3481 45.6999Z" fill="#16A34A"/>
<path d="M18.2998 30.232L22.7192 25.8125H27.1387L31.1161 28.4642L27.9341 31.3368H21.6144L18.2998 30.232Z" fill="#F9FAFB"/>
<path d="M21.6143 31.3367L24.9289 32.4416L29.9008 31.8892L31.558 25.8125H27.1386L21.6143 31.3367Z" fill="#15803D"/>
<path d="M38.1869 32.4417L44.816 25.8126L45.9209 18.0786L38.1869 19.1834L24.9287 32.4417L31.5578 39.0708L33.7675 45.6999L38.1869 41.2805V32.4417Z" fill="#F9FAFB"/>
<path d="M40.3969 25.8127L38.1872 23.603L35.9775 25.8127L38.1872 28.0224L40.3969 25.8127Z" fill="#15803D"/>
<path d="M38.1867 32.4419L31.5576 39.071L32.6624 42.3856L38.1867 36.8613V32.4419Z" fill="#4ADE80"/>
</g>
<defs>
<clipPath id="clip0_902_4439">
<rect width="64" height="64" fill="white"/>
</clipPath>
</defs>
</svg>
