<svg width="64" height="64" viewBox="0 0 64 64" fill="none" xmlns="http://www.w3.org/2000/svg">
<g clip-path="url(#clip0_902_4456)">
<path d="M32 64C49.6731 64 64 49.6731 64 32C64 14.3269 49.6731 0 32 0C14.3269 0 0 14.3269 0 32C0 49.6731 14.3269 64 32 64Z" fill="#020F16"/>
<path d="M24.9688 36.4688H30.5938L37.1469 30.8438L36.2188 28.0312H30.5938L26.8531 30.8438L24.9688 36.4688Z" fill="white"/>
<path d="M30.5941 30.8438V28.0312H27.7816L26.8535 30.8438H30.5941Z" fill="white"/>
<path d="M37.1469 30.8438H33.4062V33.6562H30.5938V36.4688H39.0312L37.1469 30.8438Z" fill="#2DA833"/>
<path d="M44.2107 21.9043L39.0957 24.8574L40.502 27.2931L45.6169 24.34L44.2107 21.9043Z" fill="white"/>
<path d="M38.0859 17.1904L35.2734 22.0618L37.7091 23.468L40.5216 18.5966L38.0859 17.1904Z" fill="white"/>
<path d="M23 29.1562H17.375V31.9688H23V29.1562Z" fill="white"/>
<path d="M19.8066 21.8975L18.4004 24.3331L23.5153 27.2863L24.9216 24.8506L19.8066 21.8975Z" fill="white"/>
<path d="M16.5602 23.2779L14.1133 21.8435L15.5195 19.4248L17.9383 20.831L16.5602 23.2779Z" fill="white"/>
<path d="M47.4695 23.2498L46.0352 20.831L48.482 19.4248L49.8883 21.8435L47.4695 23.2498Z" fill="white"/>
<path d="M25.9005 17.1875L23.4648 18.5938L26.2773 23.4652L28.713 22.0589L25.9005 17.1875Z" fill="white"/>
<path d="M46.625 29.1562H41V31.9688H46.625V29.1562Z" fill="white"/>
<path d="M16.5312 47.7188H22.1562L28.7094 42.0938L27.7812 39.2812H22.1562L18.4156 42.0938L16.5312 47.7188Z" fill="white"/>
<path d="M22.1566 42.0938V39.2812H19.3441L18.416 42.0938H22.1566Z" fill="white"/>
<path d="M28.7094 42.0938H24.9688V44.9062H22.1562V47.7188H30.5938L28.7094 42.0938Z" fill="#2DA833"/>
<path d="M33.4062 47.7188H39.0312L45.5844 42.0938L44.6562 39.2812H39.0312L35.2906 42.0938L33.4062 47.7188Z" fill="white"/>
<path d="M39.0316 42.0938V39.2812H36.2191L35.291 42.0938H39.0316Z" fill="white"/>
<path d="M45.5844 42.0938H41.8438V44.9062H39.0312V47.7188H47.4688L45.5844 42.0938Z" fill="#2DA833"/>
</g>
<defs>
<clipPath id="clip0_902_4456">
<rect width="64" height="64" fill="white"/>
</clipPath>
</defs>
</svg>
